# xmcd
#
# Track frame offsets:
#	150
#	16352
#	25037
#	34702
#	44778
#	56655
#	71130
#	81408
#	90537
#	111945
#	127168
#	137061
#
# Disc length: 2037 seconds
#
# Revision: 0
# Processed by: cddbd v1.5.2PL0 Copyright (c) Steve Scherf et al.
# Submitted via: audiograbber 1.83.01
#
DISCID=ac07f30c
DTITLE=G.B. Pergolesi - Stabat mater
DYEAR=2005
DGENRE=Classical
TTITLE0=Duet. Stabat mater
TTITLE1=Soprano. Cuius animam
TTITLE2=Duet. O quam tristis
TTITLE3=Alto. Quae moerebat
TTITLE4=Duet. Quis est homo
TTITLE5=Soprano. Vidit suum
TTITLE6=Alto. Eia mater
TTITLE7=Duet. Fac, ut ardeat
TTITLE8=Duet. Sancta mater
TTITLE9=Alto. Fac ut portem
TTITLE10=Duet. Inflammatus et accensus
TTITLE11=Duet. Quando corpus
EXTD=
EXTT0=
EXTT1=
EXTT2=
EXTT3=
EXTT4=
EXTT5=
EXTT6=
EXTT7=
EXTT8=
EXTT9=
EXTT10=
EXTT11=
PLAYORDER=
